<svg width="16" height="17" viewBox="0 0 16 17" fill="none" xmlns="http://www.w3.org/2000/svg">
<path d="M8 0.680664C6.41775 0.680664 4.87103 1.14986 3.55544 2.02891C2.23985 2.90796 1.21447 4.15739 0.608967 5.6192C0.00346628 7.081 -0.15496 8.68954 0.153721 10.2414C0.462403 11.7932 1.22433 13.2187 2.34315 14.3375C3.46197 15.4563 4.88743 16.2183 6.43928 16.5269C7.99113 16.8356 9.59966 16.6772 11.0615 16.0717C12.5233 15.4662 13.7727 14.4408 14.6518 13.1252C15.5308 11.8096 16 10.2629 16 8.68066C15.9978 6.55962 15.1542 4.52609 13.6544 3.02628C12.1546 1.52648 10.121 0.682904 8 0.680664ZM8 15.4499C6.66117 15.4499 5.35241 15.0529 4.23922 14.3091C3.12603 13.5653 2.2584 12.508 1.74605 11.2711C1.2337 10.0342 1.09965 8.67315 1.36084 7.36005C1.62203 6.04695 2.26674 4.84079 3.21343 3.89409C4.16013 2.9474 5.36629 2.30269 6.67939 2.0415C7.99249 1.78031 9.35356 1.91436 10.5905 2.42671C11.8274 2.93906 12.8846 3.80669 13.6284 4.91988C14.3722 6.03307 14.7692 7.34183 14.7692 8.68066C14.7672 10.4753 14.0534 12.1959 12.7843 13.465C11.5153 14.734 9.79469 15.4479 8 15.4499ZM10.2815 8.24528C10.3388 8.30243 10.3841 8.3703 10.4151 8.44501C10.4461 8.51971 10.462 8.59979 10.462 8.68066C10.462 8.76153 10.4461 8.84161 10.4151 8.91632C10.3841 8.99102 10.3388 9.05889 10.2815 9.11605L7.20462 12.193C7.14744 12.2501 7.07956 12.2955 7.00486 12.3264C6.93016 12.3574 6.85009 12.3733 6.76923 12.3733C6.68837 12.3733 6.60831 12.3574 6.5336 12.3264C6.4589 12.2955 6.39102 12.2501 6.33385 12.193C6.27667 12.1358 6.23132 12.0679 6.20038 11.9932C6.16943 11.9185 6.15351 11.8384 6.15351 11.7576C6.15351 11.6767 6.16943 11.5967 6.20038 11.522C6.23132 11.4473 6.27667 11.3794 6.33385 11.3222L8.97616 8.68066L6.33385 6.03912C6.21838 5.92365 6.15351 5.76704 6.15351 5.60374C6.15351 5.44044 6.21838 5.28383 6.33385 5.16835C6.44932 5.05288 6.60593 4.98801 6.76923 4.98801C6.93253 4.98801 7.08915 5.05288 7.20462 5.16835L10.2815 8.24528Z" fill="#343A40"/>
</svg>
