<svg width="14" height="16" viewBox="0 0 14 16" fill="none" xmlns="http://www.w3.org/2000/svg">
<path fill-rule="evenodd" clip-rule="evenodd" d="M0.666504 1.15389C0.666504 0.932876 0.754301 0.720915 0.910582 0.564634C1.06686 0.408354 1.27882 0.320557 1.49984 0.320557H2.74984C2.94134 0.320551 3.127 0.3865 3.27558 0.50731C3.42416 0.62812 3.5266 0.796417 3.56567 0.98389L3.949 2.82056H13.1665C13.2904 2.82055 13.4127 2.84816 13.5245 2.90137C13.6364 2.95458 13.735 3.03205 13.8131 3.12815C13.8912 3.22425 13.947 3.33657 13.9762 3.45692C14.0055 3.57727 14.0076 3.70263 13.9823 3.82389L12.9407 8.82389C12.9016 9.01136 12.7992 9.17966 12.6506 9.30047C12.502 9.42128 12.3163 9.48723 12.1248 9.48722H5.33734L5.51067 10.3206H11.4998C12.0305 10.3208 12.5473 10.4899 12.9754 10.8034C13.4035 11.1169 13.7208 11.5585 13.8814 12.0642C14.0419 12.57 14.0374 13.1137 13.8684 13.6167C13.6994 14.1197 13.3747 14.5559 12.9414 14.8622C12.508 15.1684 11.9885 15.3288 11.4579 15.3202C10.9274 15.3116 10.4133 15.1344 9.99013 14.8142C9.56696 14.4941 9.25665 14.0476 9.10408 13.5393C8.95152 13.0311 8.96463 12.4875 9.1415 11.9872H7.1915C7.35372 12.447 7.37798 12.9441 7.26128 13.4175C7.14458 13.8908 6.89202 14.3198 6.53469 14.6514C6.17735 14.9831 5.73084 15.203 5.25011 15.2842C4.76938 15.3653 4.27541 15.3042 3.829 15.1082C3.3826 14.9122 3.00323 14.59 2.7376 14.1812C2.47198 13.7723 2.33168 13.2948 2.33398 12.8073C2.33629 12.3197 2.48109 11.8435 2.75056 11.4372C3.02004 11.0309 3.40243 10.7123 3.85067 10.5206L2.0715 1.98722H1.49984C1.27882 1.98722 1.06686 1.89943 0.910582 1.74315C0.754301 1.58687 0.666504 1.3749 0.666504 1.15389Z" fill="white"/>
</svg>
