<svg width="108" height="88" viewBox="0 0 108 88" fill="none" xmlns="http://www.w3.org/2000/svg">
<path d="M26.4312 8.76494H69.0375C78.4911 8.76494 83.2128 8.76494 86.1502 11.7023C89.0875 14.6396 89.0875 19.3614 89.0875 28.8149V43.8524C89.0875 53.306 89.0875 58.0278 86.1502 60.9651C83.2128 63.9024 78.4911 63.9024 69.0375 63.9024H54C44.5464 63.9024 39.8247 63.9024 36.8873 60.9651C33.95 58.0278 33.95 53.306 33.95 43.8524V23.8024M26.4312 8.76494C24.4372 8.76494 22.5247 9.55709 21.1147 10.9671C19.7047 12.3772 18.9125 14.2896 18.9125 16.2837V23.8024M26.4312 8.76494C28.4253 8.76494 30.3378 9.55709 31.7478 10.9671C33.1578 12.3772 33.95 14.2896 33.95 16.2837V23.8024M33.95 23.8024H18.9125M18.9125 23.8024C14.2408 23.8024 11.905 23.8024 10.0654 23.0405C8.84831 22.5367 7.7424 21.798 6.81094 20.8665C5.87948 19.935 5.14072 18.8291 4.6369 17.612C3.875 15.7724 3.875 13.4366 3.875 8.76494V3.75244M79.0625 63.9024C79.0625 73.356 79.0625 78.0778 76.1252 81.0151C73.1878 83.9524 68.4661 83.9524 59.0125 83.9524H38.9625C29.5089 83.9524 24.7871 83.9524 21.8498 81.0151C18.9125 78.0778 18.9125 73.356 18.9125 63.9024V38.8399M104.125 3.75244V8.76494C104.125 13.4366 104.125 15.7724 103.363 17.612C102.859 18.8291 102.121 19.935 101.189 20.8665C100.258 21.798 99.1517 22.5367 97.9346 23.0405C96.095 23.8024 93.7591 23.8024 89.0875 23.8024" stroke="#485C46" stroke-width="7" stroke-linecap="round" stroke-linejoin="round"/>
</svg>
