<svg width="20" height="21" viewBox="0 0 20 21" fill="none" xmlns="http://www.w3.org/2000/svg">
<path d="M18.9 0.420898H1.1C0.808262 0.420898 0.528473 0.536791 0.322183 0.743081C0.115893 0.949371 0 1.22916 0 1.5209V19.3209C0 19.6126 0.115893 19.8924 0.322183 20.0987C0.528473 20.305 0.808262 20.4209 1.1 20.4209H10.68V12.6709H8.08V9.6709H10.68V7.4209C10.6261 6.89266 10.6885 6.35903 10.8627 5.85744C11.0369 5.35585 11.3188 4.89844 11.6885 4.51731C12.0582 4.13618 12.5068 3.84054 13.0028 3.65114C13.4989 3.46173 14.0304 3.38315 14.56 3.4209C15.3383 3.41611 16.1163 3.45617 16.89 3.5409V6.2409H15.3C14.04 6.2409 13.8 6.8409 13.8 7.7109V9.6409H16.8L16.41 12.6409H13.8V20.4209H18.9C19.0445 20.4209 19.1875 20.3924 19.321 20.3372C19.4544 20.2819 19.5757 20.2009 19.6778 20.0987C19.78 19.9966 19.861 19.8753 19.9163 19.7418C19.9715 19.6084 20 19.4654 20 19.3209V1.5209C20 1.37644 19.9715 1.2334 19.9163 1.09995C19.861 0.966489 19.78 0.845226 19.6778 0.743081C19.5757 0.640937 19.4544 0.559911 19.321 0.504631C19.1875 0.449351 19.0445 0.420898 18.9 0.420898Z" fill="#343A40"/>
</svg>
