<svg width="88" height="88" viewBox="0 0 88 88" fill="none" xmlns="http://www.w3.org/2000/svg">
<path d="M55.4551 57.2369L59.278 65.4574C59.278 65.4574 76.463 69.1065 76.463 77.786C76.463 83.9524 68.8173 83.9525 68.8173 83.9525H48.4554L38.4304 78.383" stroke="#485C46" stroke-width="7" stroke-linecap="round" stroke-linejoin="round"/>
<path d="M32.5446 57.2369L28.7262 65.4574C28.7262 65.4574 11.5366 69.1065 11.5366 77.786C11.5366 83.9524 19.1824 83.9525 19.1824 83.9525H28.4054L38.4304 78.383L50.6831 70.5858" stroke="#485C46" stroke-width="7" stroke-linecap="round" stroke-linejoin="round"/>
<path d="M3.8999 61.3449C3.8999 61.3449 13.4482 59.2909 19.178 57.2369C24.9034 28.4629 42.084 30.517 43.9999 30.517C45.9158 30.517 63.0964 28.4629 68.8218 57.2369C74.5516 59.2865 84.0999 61.3449 84.0999 61.3449M43.9999 21.5747C46.3633 21.5747 48.6298 20.6358 50.301 18.9647C51.9722 17.2935 52.911 15.0269 52.911 12.6636C52.911 10.3002 51.9722 8.0336 50.301 6.36244C48.6298 4.69129 46.3633 3.75244 43.9999 3.75244C41.6365 3.75244 39.37 4.69129 37.6988 6.36244C36.0276 8.0336 35.0888 10.3002 35.0888 12.6636C35.0888 15.0269 36.0276 17.2935 37.6988 18.9647C39.37 20.6358 41.6365 21.5747 43.9999 21.5747Z" stroke="#485C46" stroke-width="7" stroke-linecap="round" stroke-linejoin="round"/>
</svg>
