<svg width="20" height="21" viewBox="0 0 20 21" fill="none" xmlns="http://www.w3.org/2000/svg">
<path d="M5.8 0.420898H14.2C17.4 0.420898 20 3.0209 20 6.2209V14.6209C20 16.1592 19.3889 17.6344 18.3012 18.7221C17.2135 19.8098 15.7383 20.4209 14.2 20.4209H5.8C2.6 20.4209 0 17.8209 0 14.6209V6.2209C0 4.68264 0.61107 3.20739 1.69878 2.11968C2.78649 1.03197 4.26174 0.420898 5.8 0.420898ZM5.6 2.4209C4.64522 2.4209 3.72955 2.80018 3.05442 3.47531C2.37928 4.15044 2 5.06612 2 6.0209V14.8209C2 16.8109 3.61 18.4209 5.6 18.4209H14.4C15.3548 18.4209 16.2705 18.0416 16.9456 17.3665C17.6207 16.6914 18 15.7757 18 14.8209V6.0209C18 4.0309 16.39 2.4209 14.4 2.4209H5.6ZM15.25 3.9209C15.5815 3.9209 15.8995 4.05259 16.1339 4.28701C16.3683 4.52144 16.5 4.83938 16.5 5.1709C16.5 5.50242 16.3683 5.82036 16.1339 6.05478C15.8995 6.2892 15.5815 6.4209 15.25 6.4209C14.9185 6.4209 14.6005 6.2892 14.3661 6.05478C14.1317 5.82036 14 5.50242 14 5.1709C14 4.83938 14.1317 4.52144 14.3661 4.28701C14.6005 4.05259 14.9185 3.9209 15.25 3.9209ZM10 5.4209C11.3261 5.4209 12.5979 5.94768 13.5355 6.88536C14.4732 7.82305 15 9.09482 15 10.4209C15 11.747 14.4732 13.0188 13.5355 13.9564C12.5979 14.8941 11.3261 15.4209 10 15.4209C8.67392 15.4209 7.40215 14.8941 6.46447 13.9564C5.52678 13.0188 5 11.747 5 10.4209C5 9.09482 5.52678 7.82305 6.46447 6.88536C7.40215 5.94768 8.67392 5.4209 10 5.4209ZM10 7.4209C9.20435 7.4209 8.44129 7.73697 7.87868 8.29958C7.31607 8.86219 7 9.62525 7 10.4209C7 11.2165 7.31607 11.9796 7.87868 12.5422C8.44129 13.1048 9.20435 13.4209 10 13.4209C10.7956 13.4209 11.5587 13.1048 12.1213 12.5422C12.6839 11.9796 13 11.2165 13 10.4209C13 9.62525 12.6839 8.86219 12.1213 8.29958C11.5587 7.73697 10.7956 7.4209 10 7.4209Z" fill="#343A40"/>
</svg>
