<svg width="151" height="36" viewBox="0 0 151 36" fill="none" xmlns="http://www.w3.org/2000/svg">
<path d="M13.4726 7.71275C13.592 7.47372 13.7805 7.2761 14.0136 7.14551C14.2467 7.01492 14.5137 6.95739 14.7799 6.98039C15.0461 7.00338 15.2992 7.10583 15.5065 7.27445C15.7138 7.44308 15.8656 7.67009 15.9423 7.92605L18.9752 18.0382L21.4749 13.0454C21.5857 12.824 21.7559 12.6378 21.9665 12.5077C22.1771 12.3775 22.4197 12.3086 22.6673 12.3086C22.9148 12.3086 23.1575 12.3775 23.3681 12.5077C23.5787 12.6378 23.7489 12.824 23.8596 13.0454L26.1544 17.6416H34.2167C35.4171 15.1668 36.026 12.447 35.9957 9.69667C35.9432 4.52146 31.7912 0.310303 26.7401 0.310303C22.7331 0.310303 20.0743 2.77167 18.6644 4.55979C17.2579 2.76917 14.5958 0.310303 10.5887 0.310303C5.53768 0.310303 1.38568 4.52146 1.33319 9.69667C1.3116 11.4838 1.56251 13.2637 2.07727 14.9752H9.84133L13.4726 7.71275Z" fill="#485C46"/>
<path d="M24.1379 19.5711L22.6639 16.6232L19.8568 22.2375C19.746 22.4588 19.5758 22.645 19.3652 22.7751C19.1546 22.9052 18.912 22.9741 18.6644 22.9741C18.6272 22.9741 18.5889 22.9724 18.5494 22.9691C18.2826 22.9469 18.0286 22.8449 17.8205 22.6764C17.6125 22.5079 17.46 22.2806 17.3829 22.0242L14.3499 11.9121L11.8502 16.9048C11.74 17.125 11.571 17.3104 11.3619 17.4404C11.1527 17.5705 10.9116 17.64 10.6654 17.6414H3.11213C3.88981 19.2684 4.92496 20.8699 6.21759 22.4458C7.78156 24.3522 10.6171 27.4002 17.1654 31.8455C17.607 32.1481 18.1299 32.3101 18.6653 32.3101C19.2006 32.3101 19.7235 32.1481 20.1651 31.8455C26.7135 27.4002 29.5489 24.3522 31.1129 22.4458C31.6762 21.7601 32.2046 21.0465 32.6961 20.3077H25.3303C25.0828 20.3077 24.8401 20.2388 24.6295 20.1087C24.4189 19.9787 24.2487 19.7925 24.1379 19.5711ZM35.9957 17.6414L34.2167 17.6416C33.7735 18.5652 33.2654 19.456 32.6961 20.3077H35.9957C36.3493 20.3077 36.6884 20.1673 36.9384 19.9172C37.1884 19.6672 37.3288 19.3281 37.3288 18.9745C37.3288 18.621 37.1884 18.2819 36.9384 18.0318C36.6884 17.7818 36.3493 17.6414 35.9957 17.6414ZM1.33317 14.975C0.979594 14.975 0.640496 15.1155 0.390477 15.3655C0.140459 15.6155 0 15.9546 0 16.3082C0 16.6618 0.140459 17.0009 0.390477 17.2509C0.640496 17.5009 0.979594 17.6414 1.33317 17.6414H3.11213C2.69978 16.7802 2.35383 15.889 2.07727 14.9752L1.33317 14.975Z" fill="#485C46"/>
<path d="M52.9641 20.7777C51.6361 20.7777 50.4121 20.5697 49.2921 20.1537C48.1881 19.7217 47.2201 19.1137 46.3881 18.3297C45.5721 17.5457 44.9321 16.6257 44.4681 15.5697C44.0201 14.5137 43.7961 13.3537 43.7961 12.0897C43.7961 10.8257 44.0201 9.66571 44.4681 8.60971C44.9321 7.55371 45.5801 6.63371 46.4121 5.84972C47.2441 5.06571 48.2201 4.46571 49.3401 4.04971C50.4601 3.61771 51.6921 3.40172 53.0361 3.40172C54.5241 3.40172 55.8601 3.64971 57.0441 4.14571C58.2441 4.64171 59.2521 5.36171 60.0681 6.30572L57.5721 8.60971C56.9641 7.96971 56.3001 7.49771 55.5801 7.19372C54.8601 6.87372 54.0761 6.71372 53.2281 6.71372C52.4121 6.71372 51.6681 6.84172 50.9961 7.09771C50.3241 7.35371 49.7401 7.72171 49.2441 8.20171C48.7641 8.68172 48.3881 9.24971 48.1161 9.90571C47.8601 10.5617 47.7321 11.2897 47.7321 12.0897C47.7321 12.8737 47.8601 13.5937 48.1161 14.2497C48.3881 14.9057 48.7641 15.4817 49.2441 15.9777C49.7401 16.4577 50.3161 16.8257 50.9721 17.0817C51.6441 17.3377 52.3801 17.4657 53.1801 17.4657C53.9481 17.4657 54.6921 17.3457 55.4121 17.1057C56.1481 16.8497 56.8601 16.4257 57.5481 15.8337L59.7561 18.6417C58.8441 19.3297 57.7801 19.8577 56.5641 20.2257C55.3641 20.5937 54.1641 20.7777 52.9641 20.7777ZM56.2041 18.1377V11.8257H59.7561V18.6417L56.2041 18.1377Z" fill="#343A40"/>
<path d="M63.1037 20.4897V7.57771H66.6797V11.2257L66.1757 10.1697C66.5597 9.25772 67.1757 8.56972 68.0237 8.10571C68.8717 7.62572 69.9037 7.38572 71.1197 7.38572V10.8417C70.9597 10.8257 70.8157 10.8177 70.6877 10.8177C70.5597 10.8017 70.4237 10.7937 70.2797 10.7937C69.2557 10.7937 68.4237 11.0897 67.7837 11.6817C67.1597 12.2577 66.8477 13.1617 66.8477 14.3937V20.4897H63.1037Z" fill="#343A40"/>
<path d="M79.6602 20.6817C78.1882 20.6817 76.8922 20.3937 75.7722 19.8177C74.6682 19.2417 73.8122 18.4577 73.2042 17.4657C72.5962 16.4577 72.2922 15.3137 72.2922 14.0337C72.2922 12.7377 72.5882 11.5937 73.1802 10.6017C73.7882 9.59372 74.6122 8.80971 75.6522 8.24971C76.6922 7.67372 77.8682 7.38572 79.1802 7.38572C80.4442 7.38572 81.5802 7.65772 82.5882 8.20171C83.6122 8.72971 84.4202 9.49771 85.0122 10.5057C85.6042 11.4977 85.9002 12.6897 85.9002 14.0817C85.9002 14.2257 85.8922 14.3937 85.8762 14.5857C85.8602 14.7617 85.8442 14.9297 85.8282 15.0897H75.3402V12.9057H83.8602L82.4202 13.5537C82.4202 12.8817 82.2842 12.2977 82.0122 11.8017C81.7402 11.3057 81.3642 10.9217 80.8842 10.6497C80.4042 10.3617 79.8442 10.2177 79.2042 10.2177C78.5642 10.2177 77.9962 10.3617 77.5002 10.6497C77.0202 10.9217 76.6442 11.3137 76.3722 11.8257C76.1002 12.3217 75.9642 12.9137 75.9642 13.6017V14.1777C75.9642 14.8817 76.1162 15.5057 76.4202 16.0497C76.7402 16.5777 77.1802 16.9857 77.7402 17.2737C78.3162 17.5457 78.9882 17.6817 79.7562 17.6817C80.4442 17.6817 81.0442 17.5777 81.5562 17.3697C82.0842 17.1617 82.5642 16.8497 82.9962 16.4337L84.9882 18.5937C84.3962 19.2657 83.6522 19.7857 82.7562 20.1537C81.8602 20.5057 80.8282 20.6817 79.6602 20.6817Z" fill="#343A40"/>
<path d="M95.9612 20.4897V17.9697L95.7212 17.4177V12.9057C95.7212 12.1057 95.4732 11.4817 94.9772 11.0337C94.4972 10.5857 93.7532 10.3617 92.7452 10.3617C92.0572 10.3617 91.3772 10.4737 90.7052 10.6977C90.0492 10.9057 89.4892 11.1937 89.0252 11.5617L87.6812 8.94571C88.3852 8.44972 89.2332 8.06571 90.2252 7.79371C91.2172 7.52172 92.2252 7.38572 93.2492 7.38572C95.2172 7.38572 96.7452 7.84972 97.8332 8.77771C98.9212 9.70572 99.4652 11.1537 99.4652 13.1217V20.4897H95.9612ZM92.0252 20.6817C91.0172 20.6817 90.1532 20.5137 89.4332 20.1777C88.7132 19.8257 88.1612 19.3537 87.7772 18.7617C87.3932 18.1697 87.2012 17.5057 87.2012 16.7697C87.2012 16.0017 87.3852 15.3297 87.7532 14.7537C88.1372 14.1777 88.7372 13.7297 89.5532 13.4097C90.3692 13.0737 91.4332 12.9057 92.7452 12.9057H96.1772V15.0897H93.1532C92.2732 15.0897 91.6652 15.2337 91.3292 15.5217C91.0092 15.8097 90.8492 16.1697 90.8492 16.6017C90.8492 17.0817 91.0332 17.4657 91.4012 17.7537C91.7852 18.0257 92.3052 18.1617 92.9612 18.1617C93.5852 18.1617 94.1452 18.0177 94.6412 17.7297C95.1372 17.4257 95.4972 16.9857 95.7212 16.4097L96.2972 18.1377C96.0252 18.9697 95.5292 19.6017 94.8092 20.0337C94.0892 20.4657 93.1612 20.6817 92.0252 20.6817Z" fill="#343A40"/>
<path d="M108.134 20.6817C106.614 20.6817 105.43 20.2977 104.582 19.5297C103.734 18.7457 103.31 17.5857 103.31 16.0497V4.72172H107.054V16.0017C107.054 16.5457 107.198 16.9697 107.486 17.2737C107.774 17.5617 108.166 17.7057 108.662 17.7057C109.254 17.7057 109.758 17.5457 110.174 17.2257L111.182 19.8657C110.798 20.1377 110.334 20.3457 109.79 20.4897C109.262 20.6177 108.71 20.6817 108.134 20.6817ZM101.318 10.7457V7.86572H110.27V10.7457H101.318Z" fill="#343A40"/>
<path d="M123.944 11.2497H132.008V14.3697H123.944V11.2497ZM124.232 20.4897H120.344V3.68971H133.04V6.80971H124.232V20.4897Z" fill="#485C46"/>
<path d="M135.408 20.4897V7.57771H139.152V20.4897H135.408ZM137.28 5.77771C136.592 5.77771 136.032 5.57771 135.6 5.17772C135.168 4.77771 134.952 4.28171 134.952 3.68971C134.952 3.09771 135.168 2.60171 135.6 2.20171C136.032 1.80171 136.592 1.60171 137.28 1.60171C137.968 1.60171 138.528 1.79371 138.96 2.17772C139.392 2.54572 139.608 3.02572 139.608 3.61772C139.608 4.24171 139.392 4.76171 138.96 5.17772C138.544 5.57771 137.984 5.77771 137.28 5.77771Z" fill="#485C46"/>
<path d="M147.907 20.6817C146.387 20.6817 145.203 20.2977 144.355 19.5297C143.507 18.7457 143.083 17.5857 143.083 16.0497V4.72172H146.827V16.0017C146.827 16.5457 146.971 16.9697 147.259 17.2737C147.547 17.5617 147.939 17.7057 148.435 17.7057C149.027 17.7057 149.531 17.5457 149.947 17.2257L150.955 19.8657C150.571 20.1377 150.107 20.3457 149.563 20.4897C149.035 20.6177 148.483 20.6817 147.907 20.6817ZM141.091 10.7457V7.86572H150.043V10.7457H141.091Z" fill="#485C46"/>
<path d="M87.3868 33.4897V30.5417L87.6398 31.2237L84.3288 25.7897H85.5058L88.2888 30.3767H87.6508L90.4448 25.7897H91.5338L88.2338 31.2237L88.4758 30.5417V33.4897H87.3868Z" fill="#343A40"/>
<path d="M94.3376 33.5557C93.7509 33.5557 93.2303 33.4274 92.7756 33.1707C92.3209 32.914 91.9616 32.562 91.6976 32.1147C91.4336 31.66 91.3016 31.1467 91.3016 30.5747C91.3016 29.9954 91.4336 29.482 91.6976 29.0347C91.9616 28.5874 92.3209 28.239 92.7756 27.9897C93.2303 27.733 93.7509 27.6047 94.3376 27.6047C94.9169 27.6047 95.4339 27.733 95.8886 27.9897C96.3506 28.239 96.7099 28.5874 96.9666 29.0347C97.2306 29.4747 97.3626 29.988 97.3626 30.5747C97.3626 31.154 97.2306 31.6674 96.9666 32.1147C96.7099 32.562 96.3506 32.914 95.8886 33.1707C95.4339 33.4274 94.9169 33.5557 94.3376 33.5557ZM94.3376 32.6317C94.7116 32.6317 95.0453 32.5474 95.3386 32.3787C95.6393 32.21 95.8739 31.9717 96.0426 31.6637C96.2113 31.3484 96.2956 30.9854 96.2956 30.5747C96.2956 30.1567 96.2113 29.7974 96.0426 29.4967C95.8739 29.1887 95.6393 28.9504 95.3386 28.7817C95.0453 28.613 94.7116 28.5287 94.3376 28.5287C93.9636 28.5287 93.6299 28.613 93.3366 28.7817C93.0433 28.9504 92.8086 29.1887 92.6326 29.4967C92.4566 29.7974 92.3686 30.1567 92.3686 30.5747C92.3686 30.9854 92.4566 31.3484 92.6326 31.6637C92.8086 31.9717 93.0433 32.21 93.3366 32.3787C93.6299 32.5474 93.9636 32.6317 94.3376 32.6317Z" fill="#343A40"/>
<path d="M101.375 35.6897C100.84 35.6897 100.319 35.6127 99.813 35.4587C99.3143 35.3121 98.9073 35.0994 98.592 34.8207L99.098 34.0067C99.3693 34.2414 99.703 34.4247 100.099 34.5567C100.495 34.6961 100.909 34.7657 101.342 34.7657C102.031 34.7657 102.537 34.6044 102.86 34.2817C103.183 33.959 103.344 33.4677 103.344 32.8077V31.5757L103.454 30.4207L103.399 29.2547V27.6597H104.4V32.6977C104.4 33.7244 104.143 34.4797 103.63 34.9637C103.117 35.4477 102.365 35.6897 101.375 35.6897ZM101.243 33.2477C100.678 33.2477 100.172 33.1304 99.725 32.8957C99.285 32.6537 98.933 32.32 98.669 31.8947C98.4123 31.4694 98.284 30.978 98.284 30.4207C98.284 29.856 98.4123 29.3647 98.669 28.9467C98.933 28.5214 99.285 28.1914 99.725 27.9567C100.172 27.722 100.678 27.6047 101.243 27.6047C101.742 27.6047 102.196 27.7074 102.607 27.9127C103.018 28.1107 103.344 28.4187 103.586 28.8367C103.835 29.2547 103.96 29.7827 103.96 30.4207C103.96 31.0514 103.835 31.5757 103.586 31.9937C103.344 32.4117 103.018 32.727 102.607 32.9397C102.196 33.145 101.742 33.2477 101.243 33.2477ZM101.364 32.3237C101.753 32.3237 102.097 32.243 102.398 32.0817C102.699 31.9204 102.933 31.6967 103.102 31.4107C103.278 31.1247 103.366 30.7947 103.366 30.4207C103.366 30.0467 103.278 29.7167 103.102 29.4307C102.933 29.1447 102.699 28.9247 102.398 28.7707C102.097 28.6094 101.753 28.5287 101.364 28.5287C100.975 28.5287 100.627 28.6094 100.319 28.7707C100.018 28.9247 99.78 29.1447 99.604 29.4307C99.4353 29.7167 99.351 30.0467 99.351 30.4207C99.351 30.7947 99.4353 31.1247 99.604 31.4107C99.78 31.6967 100.018 31.9204 100.319 32.0817C100.627 32.243 100.975 32.3237 101.364 32.3237Z" fill="#343A40"/>
<path d="M110.037 33.4897V32.2577L109.982 32.0267V29.9257C109.982 29.4784 109.85 29.1337 109.586 28.8917C109.329 28.6424 108.94 28.5177 108.42 28.5177C108.075 28.5177 107.738 28.5764 107.408 28.6937C107.078 28.8037 106.799 28.954 106.572 29.1447L106.132 28.3527C106.432 28.1107 106.792 27.9274 107.21 27.8027C107.635 27.6707 108.079 27.6047 108.541 27.6047C109.34 27.6047 109.956 27.799 110.389 28.1877C110.821 28.5764 111.038 29.1704 111.038 29.9697V33.4897H110.037ZM108.123 33.5557C107.69 33.5557 107.309 33.4824 106.979 33.3357C106.656 33.189 106.407 32.9874 106.231 32.7307C106.055 32.4667 105.967 32.1697 105.967 31.8397C105.967 31.5244 106.04 31.2384 106.187 30.9817C106.341 30.725 106.586 30.5197 106.924 30.3657C107.268 30.2117 107.73 30.1347 108.31 30.1347H110.158V30.8937H108.354C107.826 30.8937 107.47 30.9817 107.287 31.1577C107.103 31.3337 107.012 31.5464 107.012 31.7957C107.012 32.0817 107.125 32.3127 107.353 32.4887C107.58 32.6574 107.895 32.7417 108.299 32.7417C108.695 32.7417 109.039 32.6537 109.333 32.4777C109.633 32.3017 109.85 32.045 109.982 31.7077L110.191 32.4337C110.051 32.7784 109.806 33.0534 109.454 33.2587C109.102 33.4567 108.658 33.5557 108.123 33.5557Z" fill="#343A40"/>
<path d="M118.344 33.5777C117.757 33.5777 117.196 33.4897 116.661 33.3137C116.126 33.1304 115.704 32.8957 115.396 32.6097L115.803 31.7517C116.096 32.0084 116.47 32.2211 116.925 32.3897C117.38 32.5584 117.853 32.6427 118.344 32.6427C118.791 32.6427 119.154 32.5914 119.433 32.4887C119.712 32.386 119.917 32.2467 120.049 32.0707C120.181 31.8874 120.247 31.682 120.247 31.4547C120.247 31.1907 120.159 30.978 119.983 30.8167C119.814 30.6554 119.591 30.527 119.312 30.4317C119.041 30.329 118.74 30.241 118.41 30.1677C118.08 30.0944 117.746 30.01 117.409 29.9147C117.079 29.812 116.775 29.6837 116.496 29.5297C116.225 29.3757 116.005 29.1704 115.836 28.9137C115.667 28.6497 115.583 28.3124 115.583 27.9017C115.583 27.5057 115.686 27.1427 115.891 26.8127C116.104 26.4754 116.426 26.2077 116.859 26.0097C117.299 25.8044 117.856 25.7017 118.531 25.7017C118.978 25.7017 119.422 25.7604 119.862 25.8777C120.302 25.995 120.683 26.1637 121.006 26.3837L120.643 27.2637C120.313 27.0437 119.965 26.886 119.598 26.7907C119.231 26.688 118.876 26.6367 118.531 26.6367C118.098 26.6367 117.743 26.6917 117.464 26.8017C117.185 26.9117 116.98 27.0584 116.848 27.2417C116.723 27.425 116.661 27.6304 116.661 27.8577C116.661 28.129 116.745 28.3454 116.914 28.5067C117.09 28.668 117.314 28.7964 117.585 28.8917C117.864 28.987 118.168 29.075 118.498 29.1557C118.828 29.229 119.158 29.3134 119.488 29.4087C119.825 29.504 120.13 29.6287 120.401 29.7827C120.68 29.9367 120.903 30.142 121.072 30.3987C121.241 30.6554 121.325 30.9854 121.325 31.3887C121.325 31.7774 121.219 32.1404 121.006 32.4777C120.793 32.8077 120.463 33.0754 120.016 33.2807C119.576 33.4787 119.019 33.5777 118.344 33.5777Z" fill="#343A40"/>
<path d="M124.78 33.5557C124.193 33.5557 123.739 33.398 123.416 33.0827C123.093 32.7674 122.932 32.3164 122.932 31.7297V26.3837H123.988V31.6857C123.988 32.001 124.065 32.243 124.219 32.4117C124.38 32.5804 124.608 32.6647 124.901 32.6647C125.231 32.6647 125.506 32.5731 125.726 32.3897L126.056 33.1487C125.895 33.288 125.7 33.3907 125.473 33.4567C125.253 33.5227 125.022 33.5557 124.78 33.5557ZM121.942 28.5287V27.6597H125.66V28.5287H121.942Z" fill="#343A40"/>
<path d="M129.786 33.5557C129.287 33.5557 128.847 33.464 128.466 33.2807C128.092 33.0974 127.798 32.8187 127.586 32.4447C127.38 32.0634 127.278 31.5867 127.278 31.0147V27.6597H128.334V30.8937C128.334 31.4657 128.469 31.8947 128.741 32.1807C129.019 32.4667 129.408 32.6097 129.907 32.6097C130.273 32.6097 130.592 32.5364 130.864 32.3897C131.135 32.2357 131.344 32.0157 131.491 31.7297C131.637 31.4364 131.711 31.0844 131.711 30.6737V27.6597H132.767V33.4897H131.766V31.9167L131.931 32.3347C131.74 32.7234 131.454 33.0241 131.073 33.2367C130.691 33.4494 130.262 33.5557 129.786 33.5557Z" fill="#343A40"/>
<path d="M137.186 33.5557C136.621 33.5557 136.115 33.4311 135.668 33.1817C135.228 32.9324 134.88 32.584 134.623 32.1367C134.366 31.6894 134.238 31.1687 134.238 30.5747C134.238 29.9807 134.366 29.4637 134.623 29.0237C134.88 28.5764 135.228 28.228 135.668 27.9787C136.115 27.7294 136.621 27.6047 137.186 27.6047C137.677 27.6047 138.121 27.7147 138.517 27.9347C138.913 28.1547 139.228 28.4847 139.463 28.9247C139.705 29.3647 139.826 29.9147 139.826 30.5747C139.826 31.2347 139.709 31.7847 139.474 32.2247C139.247 32.6647 138.935 32.9984 138.539 33.2257C138.143 33.4457 137.692 33.5557 137.186 33.5557ZM137.274 32.6317C137.641 32.6317 137.971 32.5474 138.264 32.3787C138.565 32.21 138.799 31.9717 138.968 31.6637C139.144 31.3484 139.232 30.9854 139.232 30.5747C139.232 30.1567 139.144 29.7974 138.968 29.4967C138.799 29.1887 138.565 28.9504 138.264 28.7817C137.971 28.613 137.641 28.5287 137.274 28.5287C136.9 28.5287 136.566 28.613 136.273 28.7817C135.98 28.9504 135.745 29.1887 135.569 29.4967C135.393 29.7974 135.305 30.1567 135.305 30.5747C135.305 30.9854 135.393 31.3484 135.569 31.6637C135.745 31.9717 135.98 32.21 136.273 32.3787C136.566 32.5474 136.9 32.6317 137.274 32.6317ZM139.265 33.4897V31.9167L139.331 30.5637L139.221 29.2107V25.3277H140.277V33.4897H139.265Z" fill="#343A40"/>
<path d="M142.275 33.4897V27.6597H143.331V33.4897H142.275ZM142.803 26.5377C142.598 26.5377 142.425 26.4717 142.286 26.3397C142.154 26.2077 142.088 26.0464 142.088 25.8557C142.088 25.6577 142.154 25.4927 142.286 25.3607C142.425 25.2287 142.598 25.1627 142.803 25.1627C143.008 25.1627 143.177 25.2287 143.309 25.3607C143.448 25.4854 143.518 25.643 143.518 25.8337C143.518 26.0317 143.452 26.2004 143.32 26.3397C143.188 26.4717 143.016 26.5377 142.803 26.5377Z" fill="#343A40"/>
<path d="M147.844 33.5557C147.258 33.5557 146.737 33.4274 146.282 33.1707C145.828 32.914 145.468 32.562 145.204 32.1147C144.94 31.66 144.808 31.1467 144.808 30.5747C144.808 29.9954 144.94 29.482 145.204 29.0347C145.468 28.5874 145.828 28.239 146.282 27.9897C146.737 27.733 147.258 27.6047 147.844 27.6047C148.424 27.6047 148.941 27.733 149.395 27.9897C149.857 28.239 150.217 28.5874 150.473 29.0347C150.737 29.4747 150.869 29.988 150.869 30.5747C150.869 31.154 150.737 31.6674 150.473 32.1147C150.217 32.562 149.857 32.914 149.395 33.1707C148.941 33.4274 148.424 33.5557 147.844 33.5557ZM147.844 32.6317C148.218 32.6317 148.552 32.5474 148.845 32.3787C149.146 32.21 149.381 31.9717 149.549 31.6637C149.718 31.3484 149.802 30.9854 149.802 30.5747C149.802 30.1567 149.718 29.7974 149.549 29.4967C149.381 29.1887 149.146 28.9504 148.845 28.7817C148.552 28.613 148.218 28.5287 147.844 28.5287C147.47 28.5287 147.137 28.613 146.843 28.7817C146.55 28.9504 146.315 29.1887 146.139 29.4967C145.963 29.7974 145.875 30.1567 145.875 30.5747C145.875 30.9854 145.963 31.3484 146.139 31.6637C146.315 31.9717 146.55 32.21 146.843 32.3787C147.137 32.5474 147.47 32.6317 147.844 32.6317Z" fill="#343A40"/>
</svg>
