<svg width="122" height="88" viewBox="0 0 122 88" fill="none" xmlns="http://www.w3.org/2000/svg">
<path d="M52.4422 61.0857L90.4427 35.246C91.5234 34.4402 92.4724 33.5084 93.2896 32.4507C96.0678 28.8419 96.0162 23.8241 94.252 19.631C92.2465 14.9069 88.8908 10.8799 84.6059 8.05518C80.3209 5.23046 75.2973 3.73371 70.1651 3.75262C64.8035 3.75262 59.82 5.35077 55.6786 8.08883L15.1233 36.7296" stroke="#485C46" stroke-width="7" stroke-linecap="round" stroke-linejoin="round"/>
<path d="M26.6025 52.4762C26.6025 56.463 28.7162 64.3907 38.288 66.5674C44.0562 67.8734 60.8454 62.3515 52.6312 46.3585C44.4171 30.3655 24.6378 30.2853 16.5897 35.6469C11.6692 38.6255 2.12042 47.9509 3.93051 60.3409C4.57779 67.8448 10.4892 83.0817 28.9912 83.9524H85.654C90.9354 83.5342 92.0237 82.7666 96.0449 79.6849C101.458 74.8274 110.491 65.8915 115.744 60.0087C116.878 58.7428 118.098 57.431 118.259 55.7355C119.089 46.7079 105.388 50.6203 95.4606 49.5434" stroke="#485C46" stroke-width="7" stroke-linecap="round" stroke-linejoin="round"/>
</svg>
