<svg width="88" height="90" viewBox="0 0 88 90" fill="none" xmlns="http://www.w3.org/2000/svg">
<path d="M43.9994 85.9522C37.7171 85.1502 32.1032 83.5462 27.1576 81.1402C22.2119 78.7342 18.0188 75.5931 14.5783 71.7168C11.1377 67.8405 8.51389 63.3467 6.70673 58.2353C4.89958 53.1239 3.99733 47.4592 4.00001 41.241C11.3516 41.9762 17.5671 43.3128 22.6464 45.251C27.7256 47.1892 31.8532 49.9293 35.0291 53.4714C38.205 57.0136 40.4934 61.4419 41.8942 66.7565C43.295 72.071 43.9968 78.4696 43.9994 85.9522ZM43.9994 52.1682C42.4623 49.829 40.3744 47.5233 37.7359 45.251C35.0973 42.9787 32.039 40.9069 28.5611 39.0355C28.962 36.2286 29.6304 33.3213 30.566 30.3139C31.5017 27.3064 32.6379 24.3497 33.9745 21.4438C35.3112 18.5379 36.8323 15.747 38.5378 13.071C40.2434 10.395 42.0639 7.95562 43.9994 5.75281C45.9376 7.95829 47.7594 10.3977 49.465 13.071C51.1706 15.7443 52.6904 18.5353 54.0243 21.4438C55.3583 24.3524 56.4945 27.3091 57.4328 30.3139C58.3711 33.3187 59.0395 36.2259 59.4378 39.0355C55.9625 40.84 52.9056 42.8784 50.267 45.1507C47.6284 47.4231 45.5393 49.7622 43.9994 52.1682ZM52.0194 84.3482C51.8857 79.6699 51.5355 75.3418 50.9687 71.3639C50.402 67.386 49.5158 63.6274 48.3101 60.0879C51.4513 54.6744 55.7794 50.2635 61.2944 46.855C66.8095 43.4465 74.3776 41.5752 83.9988 41.241C84.0657 51.8006 81.2413 60.9073 75.5258 68.5609C69.8102 76.2146 61.9748 81.4771 52.0194 84.3482Z" stroke="#485C46" stroke-width="7"/>
</svg>
