<svg width="20" height="15" viewBox="0 0 20 15" fill="none" xmlns="http://www.w3.org/2000/svg">
<path d="M10.0644 0.395996H10.1756C11.2032 0.399746 16.4098 0.437249 17.8136 0.814772C18.238 0.92999 18.6247 1.15457 18.9351 1.46607C19.2455 1.77757 19.4688 2.16509 19.5825 2.58988C19.7087 3.06491 19.7975 3.6937 19.8575 4.34249L19.87 4.4725L19.8975 4.79752L19.9075 4.92753C19.9888 6.0701 19.9988 7.14017 20 7.37393V7.46769C19.9988 7.7102 19.9875 8.85277 19.8975 10.0428L19.8875 10.1741L19.8762 10.3041C19.8137 11.0192 19.7212 11.7292 19.5825 12.2517C19.4688 12.6765 19.2455 13.064 18.9351 13.3755C18.6247 13.6871 18.238 13.9116 17.8136 14.0268C16.3635 14.4169 10.8519 14.4444 10.0881 14.4456H9.91062C9.52435 14.4456 7.92675 14.4381 6.25164 14.3806L6.03913 14.3731L5.93037 14.3681L5.71661 14.3594L5.50284 14.3506C4.11526 14.2894 2.79392 14.1906 2.18514 14.0256C1.76089 13.9105 1.37427 13.6861 1.06388 13.3748C0.753488 13.0636 0.530187 12.6763 0.416276 12.2517C0.277517 11.7305 0.185012 11.0192 0.122508 10.3041L0.112507 10.1729L0.102506 10.0428C0.0404568 9.19582 0.00626954 8.34697 0 7.49769L0 7.34393C0.00250016 7.07516 0.0125008 6.14636 0.080005 5.12129L0.0887556 4.99253L0.0925058 4.92753L0.102506 4.79752L0.130008 4.4725L0.142509 4.34249C0.202513 3.6937 0.291268 3.06366 0.417526 2.58988C0.531246 2.16509 0.754462 1.77757 1.06487 1.46607C1.37527 1.15457 1.76199 0.92999 2.18639 0.814772C2.79517 0.652262 4.11651 0.552256 5.50409 0.489752L5.71661 0.481001L5.93162 0.473501L6.03913 0.469751L6.25289 0.461C7.4426 0.422752 8.6328 0.401499 9.82311 0.397246L10.0644 0.395996ZM8.0005 4.40875V10.4316L13.1971 7.42144L8.0005 4.40875Z" fill="#343A40"/>
</svg>
